<svg xmlns="http://www.w3.org/2000/svg" xmlns:xlink="http://www.w3.org/1999/xlink" viewBox="0,0,256,256" width="30px" height="30px" fill-rule="nonzero"><g transform="translate(-126.72,-126.72) scale(1.99,1.99)"><g fill="none" fill-rule="nonzero" stroke="none" stroke-width="1" stroke-linecap="butt" stroke-linejoin="miter" stroke-miterlimit="10" stroke-dasharray="" stroke-dashoffset="0" font-family="none" font-weight="none" font-size="none" text-anchor="none" style="mix-blend-mode: normal"><g transform="translate(-62.29571,76.8) scale(8.53333,8.53333)"><path transform="translate(-2.89624,2.17959) rotate(-20.049)" d="M3.718,8.282h2v2h-2z" fill="#66798f"></path><path d="M19.609,5.902l2.298,-4.599l0.874,2.623l2.719,-2.719v2.187l3.283,0.792l-2.377,1.613l0.901,2.701h-2.615l-0.828,1.656z" fill="#f78f8f"></path><path d="M25,2.414v0.586v0.787l0.765,0.185l1.802,0.435l-1.129,0.766l-0.627,0.425l0.24,0.719l0.562,1.683h-1.613h-0.618l-0.276,0.553l-0.38,0.759l-2.019,-2.019l-1.49,-1.49l1.598,-3.196l0.237,0.71l0.512,1.535l1.144,-1.144l1.292,-1.294M26,0l-3,3l-1,-3l-3,6l2,2l3,3l1,-2h3l-1,-3l3,-2.035l-4,-0.965v-3z" fill="#c74343"></path><path d="M20,6l2,-1v1h2l-2,1l1,1l-3.247,-0.447z" fill="#ffeea3"></path><path d="M5.518,14.897c-0.26,0.095 -0.546,-0.039 -0.641,-0.298c-0.408,-1.119 -2.086,-1.9 -3.205,-1.492c-0.26,0.095 -0.546,-0.039 -0.641,-0.298c-0.095,-0.26 0.039,-0.546 0.298,-0.641c1.628,-0.594 3.894,0.46 4.488,2.088c0.094,0.259 -0.039,0.546 -0.299,0.641zM10.916,14.263c1.288,0 2.435,0.78 2.855,1.94c0.511,1.411 0.19,3.778 -2.121,4.622c-0.313,0.114 -0.597,0.172 -0.843,0.172c-0.264,0 -0.964,0 -1.493,-1.449c-0.055,-0.151 -0.167,-0.444 -0.28,-0.742c-0.114,-0.299 -0.23,-0.603 -0.289,-0.766c-0.469,-1.286 -0.667,-2.95 1.054,-3.578c0.362,-0.132 0.738,-0.199 1.117,-0.199M10.916,13.263c-0.484,0 -0.978,0.084 -1.461,0.26c-2.145,0.783 -2.408,2.785 -1.65,4.86c0.118,0.325 0.46,1.206 0.57,1.508c0.487,1.334 1.281,2.106 2.432,2.106c0.36,0 0.755,-0.076 1.186,-0.233c2.824,-1.03 3.421,-3.959 2.718,-5.901c-0.582,-1.61 -2.129,-2.6 -3.795,-2.6z" fill="#66798f"></path><path d="M8.482,16.103c0.26,-0.095 0.546,0.039 0.641,0.298c0.408,1.119 2.086,1.9 3.205,1.492c0.26,-0.095 0.546,0.039 0.641,0.298c0.095,0.26 -0.039,0.546 -0.298,0.641c-1.628,0.594 -3.894,-0.46 -4.488,-2.088c-0.094,-0.259 0.039,-0.546 0.299,-0.641z" fill="#66798f"></path><path d="M3.705,20.315c-0.627,0 -1.193,-0.396 -1.409,-0.986l-0.686,-1.879c-0.138,-0.376 -0.12,-0.784 0.049,-1.147c0.169,-0.363 0.47,-0.639 0.847,-0.776c1.994,-0.728 1.994,-2.488 1.994,-4.527v-0.646l14.952,-5.275l1.108,3.014l-0.468,0.171c-0.376,0.137 -0.676,0.413 -0.845,0.777c-0.096,0.206 -0.144,0.425 -0.142,0.645l-3.986,1.43c-1.266,0.462 -1.929,1.961 -1.449,3.275l0.405,1.183l-5.501,1.996c-0.377,0.138 -0.678,0.414 -0.847,0.777c-0.096,0.207 -0.143,0.427 -0.141,0.648l-3.366,1.229c-0.167,0.06 -0.34,0.091 -0.515,0.091z" fill="#e1ebf2"></path><path d="M19.153,5.715l0.765,2.08c-0.691,0.253 -1.159,0.85 -1.281,1.527l-3.692,1.324c-1.518,0.554 -2.317,2.347 -1.752,3.896l0.249,0.727l-5.042,1.83c-0.694,0.253 -1.163,0.853 -1.284,1.533l-2.131,0.778l-0.939,0.343c-0.111,0.041 -0.226,0.061 -0.343,0.061c-0.418,0 -0.796,-0.264 -0.94,-0.658l-0.683,-1.878c-0.092,-0.251 -0.08,-0.522 0.033,-0.764c0.113,-0.242 0.313,-0.426 0.564,-0.518c2.323,-0.848 2.323,-2.863 2.323,-4.996v-0.292l14.153,-4.993M19.751,4.444l-15.751,5.556v1c0,2.292 -0.107,3.488 -1.666,4.057c-1.038,0.379 -1.572,1.527 -1.193,2.564l0.685,1.879c0.296,0.811 1.063,1.315 1.879,1.315c0.228,0 0.459,-0.039 0.685,-0.122l0.94,-0.343l2.818,-1.028v0v0c-0.189,-0.519 0.078,-1.093 0.597,-1.282l5.964,-2.165l-0.568,-1.656c-0.377,-1.033 0.115,-2.256 1.148,-2.633l4.378,-1.57c-0.189,-0.517 0.08,-1.094 0.597,-1.282l0.939,-0.343l-1.452,-3.947z" fill="#788b9c"></path><path d="M2.046,29.5c-0.207,0 -0.389,-0.123 -0.462,-0.313c-0.846,-2.199 -2.413,-7.56 1.101,-10.231c0.145,0.158 0.395,0.402 0.801,0.402c0.017,0 0.033,0 0.05,-0.001c0.127,0.078 0.301,0.134 0.54,0.134c0.227,0 0.481,-0.047 0.729,-0.093c0.214,-0.04 0.433,-0.083 0.617,-0.083c0.026,0 0.048,0.001 0.063,0.002l0.265,0.726c-0.254,1.389 0.656,4.288 1.688,7.231c0.113,0.322 -0.019,0.601 -0.279,0.696l-4.914,1.49c-0.082,0.03 -0.141,0.04 -0.199,0.04z" fill="#b08159"></path><path d="M2.676,19.611c0.186,0.125 0.43,0.231 0.737,0.245c0.174,0.08 0.392,0.134 0.661,0.134c0.272,0 0.551,-0.051 0.82,-0.101c0.081,-0.015 0.168,-0.031 0.25,-0.044l0.091,0.248c-0.188,1.452 0.558,4.007 1.732,7.352l0.018,0.052l-4.885,1.485l-0.023,0.016l-0.026,0.009c-0.778,-2.022 -2.207,-6.846 0.625,-9.396M2.719,18.38c-0.059,0 -0.127,0.024 -0.207,0.082c-3.975,2.862 -2.252,8.675 -1.394,10.905c0.151,0.393 0.528,0.633 0.928,0.633c0.115,0 0.231,-0.02 0.345,-0.061l4.938,-1.501c0.515,-0.188 0.782,-0.752 0.601,-1.269c-0.621,-1.77 -2.045,-5.805 -1.661,-7.16c-0.117,-0.32 -0.231,-0.634 -0.343,-0.939c-0.071,-0.194 -0.262,-0.255 -0.506,-0.255c-0.413,0 -0.975,0.176 -1.346,0.176c-0.185,0 -0.322,-0.044 -0.37,-0.175c-0.083,0.03 -0.155,0.043 -0.22,0.043c-0.394,-0.002 -0.498,-0.479 -0.765,-0.479z" fill="#704e34"></path><path d="M19.751,4.444l-3.758,1.371l0.875,-1.88l2.372,-0.892zM20.264,8.733l0.939,-0.343l-0.343,-0.932l-10.254,3.741l0.343,0.939l9.288,-3.389c0.01,-0.003 0.017,-0.012 0.027,-0.016z" fill="#66798f"></path><g><path transform="translate(-3.85438,4.1618) rotate(-20.082)" d="M7.693,10.624h4.263v4.679h-4.263z" fill="#66798f"></path><path d="M9.063,12.83l2.631,-0.963l-0.343,-0.939l-2.631,0.962c-0.258,0.094 -0.393,0.383 -0.298,0.641c0.095,0.258 0.383,0.393 0.641,0.299zM11.988,12.674l-2.596,0.95c-0.258,0.095 -0.392,0.383 -0.298,0.642c0.094,0.259 0.383,0.393 0.641,0.298l2.596,-0.95z" fill="#36404d"></path></g><g fill="#704e34"><path d="M5.584,18.129c-1.038,0.379 -2.186,-0.156 -2.564,-1.193l-0.686,-1.879v0c-1.038,0.379 -1.572,1.527 -1.193,2.564l0.685,1.879v0c0.379,1.038 1.527,1.572 2.564,1.193l0.94,-0.343l2.818,-1.028v0c-0.379,-1.038 -1.527,-1.572 -2.564,-1.193z"></path></g></g></g></g></svg>